<svg width="147" height="182" viewBox="0 0 147 182" fill="none" xmlns="http://www.w3.org/2000/svg">
<path d="M0.036008 60.2946C0.036008 40.9939 0.0581309 21.696 5.46398e-05 2.39531C-0.00547643 0.619839 0.406576 -0.0521765 2.30374 0.00313427C6.85581 0.13588 11.4162 0.124821 15.9683 0.00590251C17.7908 -0.0411116 18.33 0.495406 18.3273 2.34278C18.2747 34.8683 18.2858 67.391 18.2941 99.9164C18.2941 102.873 17.9677 102.558 20.9296 102.558C48.773 102.566 76.6137 102.582 104.457 102.533C107.588 102.527 110.732 102.159 113.769 101.308C121.214 99.2168 127.013 91.5424 127.693 83.7519C128.091 79.1888 127.809 74.8579 126.059 70.6571C123.194 63.7875 117.737 60.1314 110.685 58.5717C108.478 58.0849 106.238 57.7807 103.965 57.7835C83.4639 57.789 62.9603 57.7863 42.4594 57.7863C39.904 57.7863 39.904 57.7835 39.904 55.1562C39.904 50.4742 39.7215 45.7811 39.9455 41.1101C40.2911 33.9584 40.8636 26.7929 43.7785 20.1114C46.3449 14.2291 50.449 9.69358 55.9994 6.39982C61.0438 3.40751 66.4199 1.40803 72.1944 0.523057C74.3017 0.199489 76.4533 0.0722646 78.5883 0.063968C89.0918 0.0197194 99.5953 0.0805747 110.102 0.00867075C111.869 -0.0023914 112.552 0.401376 112.499 2.30683C112.367 7.04973 112.397 11.7981 112.486 16.5438C112.516 18.2336 111.902 18.7148 110.27 18.7065C99.0063 18.6539 87.7422 18.6373 76.481 18.7037C73.19 18.7231 70.0013 19.3536 67.1805 21.2812C62.692 24.3482 60.4353 28.7785 59.3153 33.9169C59.0609 35.0784 59.1272 36.3257 58.7622 37.4402C58.2589 38.9751 58.9171 39.1714 60.1892 39.1631C65.2501 39.1327 70.3138 39.1521 75.3747 39.1521C83.9175 39.1521 92.4658 38.9696 101 39.2102C107.77 39.401 114.488 40.1311 120.995 42.4182C130.204 45.6566 136.75 51.8404 141.532 60.1038C145.733 67.3633 147.309 75.3004 146.568 83.5694C145.794 92.2006 142.663 100.052 137.245 106.872C131.358 114.281 123.542 118.531 114.347 120.34C112.693 120.666 110.973 120.796 109.283 120.799C73.721 120.824 38.1589 120.818 2.5969 120.818C0.0387762 120.818 0.0387762 120.816 0.0387762 118.191C0.0360107 98.8932 0.036008 79.5953 0.036008 60.2946Z" fill="#EB7D2A"/>
<path d="M66.1932 146.9C66.8458 143.955 66.8458 143.955 69.91 143.955C71.9317 143.955 73.956 143.994 75.9777 143.941C77.1226 143.911 77.5402 144.364 77.5374 145.504C77.5125 156.757 77.5125 168.007 77.5374 179.26C77.5402 180.396 77.1309 180.85 75.9832 180.828C73.3919 180.781 70.8006 180.778 68.2093 180.828C67.0643 180.85 66.3923 180.582 66.4642 179.26C66.5278 178.048 65.9996 178.015 65.1035 178.654C57.9242 183.768 49.1243 182.667 43.1922 176.964C39.998 173.895 38.1368 169.918 37.556 165.319C36.8453 159.669 37.9875 154.61 41.2204 149.981C43.9278 146.104 47.7387 144.074 52.3185 143.172C57.5204 142.149 61.9564 143.742 66.1932 146.9ZM57.8413 153.856C52.5951 153.289 49.1409 157.984 49.0496 162.127C48.9445 167.036 53.1979 171.027 57.526 171.041C62.0891 171.054 66.4366 166.914 66.1711 162.329C65.8779 157.29 62.7695 153.856 57.8413 153.856Z" fill="#EB7D2A"/>
<path d="M127.793 166.386C123.935 166.386 120.08 166.422 116.222 166.367C114.861 166.347 114.679 166.804 115.317 167.874C116.935 170.593 119.424 171.854 122.488 172.039C126.482 172.28 130.254 171.414 133.683 169.345C134.646 168.765 135.008 168.883 135.52 169.84C136.557 171.773 137.724 173.637 138.869 175.512C139.369 176.334 139.214 176.903 138.39 177.374C129.767 182.271 120.876 183.51 111.764 178.914C106.473 176.245 103.987 171.45 102.947 165.822C101.816 159.705 103.362 154.218 107.239 149.436C110.046 145.974 113.893 144.107 118.199 143.269C124.012 142.138 129.463 143.158 134.358 146.568C138.659 149.563 140.821 153.839 141.289 158.98C141.449 160.736 141.28 162.52 141.325 164.29C141.361 165.803 140.749 166.441 139.176 166.411C135.381 166.334 131.587 166.383 127.793 166.386ZM122.187 157.998C124.33 157.998 126.474 157.979 128.617 158.004C129.975 158.02 130.105 157.409 129.582 156.344C129.123 155.41 128.335 154.763 127.602 154.093C124.228 151.015 117.585 152.058 115.409 155.971C114.43 157.73 114.56 157.979 116.512 157.995C118.404 158.012 120.295 158.001 122.187 157.998Z" fill="#EB7D2A"/>
<path d="M18.7476 142.815C23.3384 142.6 27.3761 144.173 31.1925 146.566C32.2047 147.199 32.2849 147.766 31.6544 148.692C30.3795 150.559 29.0741 152.412 27.943 154.367C27.2903 155.495 26.6488 154.923 26.1012 154.533C23.5652 152.724 20.7277 152.177 17.6884 152.334C16.5656 152.393 15.4704 152.503 15.2741 153.903C15.086 155.241 15.8383 156.096 17.0109 156.466C20.0087 157.406 22.9955 158.372 25.902 159.569C32.3236 162.213 34.9066 167.409 32.6472 173.635C31.4055 177.058 28.7893 179.083 25.5066 180.452C18.0894 183.538 7.67441 181.685 2.01059 176.22C1.52939 175.756 1.08411 175.496 1.63722 174.713C3.08359 172.661 4.43872 170.543 5.7966 168.43C6.30546 167.636 6.70094 167.904 7.30107 168.347C9.48584 169.956 11.7702 171.372 14.5108 171.887C16.0872 172.183 17.6691 172.119 19.2261 171.981C20.2217 171.892 21.1094 171.309 21.2947 170.095C21.4938 168.798 20.6945 168.25 19.6907 167.888C16.7951 166.842 13.883 165.847 10.9847 164.807C1.83358 161.516 1.35515 151.068 6.90835 146.408C10.2878 143.57 14.3808 142.619 18.7476 142.815Z" fill="#EB7D2A"/>
<path d="M85.0873 155.371C85.0873 147.592 85.1288 139.815 85.0542 132.035C85.0376 130.398 85.4745 129.759 87.1809 129.862C89.385 129.994 91.6057 129.895 93.8182 129.895C96.6556 129.895 96.6611 129.895 96.6611 132.658C96.6639 142.016 96.6611 151.375 96.6611 160.736C96.6611 166.679 96.6114 172.625 96.6916 178.568C96.7137 180.283 96.2131 180.949 94.4238 180.847C91.9652 180.706 89.4901 180.739 87.0288 180.839C85.5437 180.897 85.0459 180.405 85.0597 178.895C85.1205 171.054 85.0873 163.211 85.0873 155.371Z" fill="#EB7D2A"/>
</svg>
