<svg width="54" height="72" viewBox="0 0 54 72" fill="none" xmlns="http://www.w3.org/2000/svg">
<g clip-path="url(#clip0_1_4)">
<path d="M3.81767 61.5304H3.15071C3.0854 61.5304 3.05176 61.5639 3.05176 61.6291V62.3716C3.05176 62.4427 3.0854 62.4762 3.15071 62.4762H3.81767C3.88298 62.4762 3.91663 62.4427 3.91663 62.3716V61.6291C3.91663 61.5639 3.88298 61.5304 3.81767 61.5304Z" fill="#EB7D2A"/>
<path d="M14.6078 61.5304H13.9409C13.8755 61.5304 13.8419 61.5639 13.8419 61.6291V62.3716C13.8419 62.4427 13.8755 62.4762 13.9409 62.4762H14.6078C14.6731 62.4762 14.7068 62.4427 14.7068 62.3716V61.6291C14.7068 61.5639 14.6731 61.5304 14.6078 61.5304ZM13.4124 61.5304H12.7415C12.6821 61.5304 12.6485 61.5639 12.6485 61.6291V62.3716C12.6485 62.4427 12.6821 62.4762 12.7415 62.4762H13.4124C13.4777 62.4762 13.5114 62.4427 13.5114 62.3716V61.6291C13.5114 61.5639 13.4777 61.5304 13.4124 61.5304Z" fill="#EB7D2A"/>
<path d="M14.2931 56.5285V59.3029C14.2931 59.7433 14.2041 60.0671 14.0279 60.2705C13.8518 60.4798 13.5529 60.5845 13.1472 60.5845H7.81946C7.60967 60.5845 7.4276 60.541 7.27521 60.4522C7.1149 60.3633 6.99417 60.233 6.91303 60.0573C6.82397 60.233 6.69731 60.3653 6.53304 60.4522C6.36679 60.541 6.14711 60.5845 5.87202 60.5845H1.1459C0.73227 60.5845 0.441341 60.4798 0.265201 60.2705C0.0890599 60.0671 0 59.7433 0 59.3029V57.1762C0 57.1111 0.0336449 57.0775 0.0930181 57.0775H0.726333C0.785706 57.0775 0.819351 57.1111 0.819351 57.1762V59.2476C0.819351 59.451 0.858933 59.5932 0.936119 59.6702C1.0133 59.7472 1.12809 59.7907 1.29434 59.7907H5.73348C5.90368 59.7907 6.02639 59.7472 6.10159 59.6702C6.17284 59.5932 6.21242 59.451 6.21242 59.2476V56.5266C6.21242 56.4555 6.24607 56.4219 6.31138 56.4219H6.93876C7.00407 56.4219 7.03771 56.4555 7.03771 56.5266V59.1371C7.03771 59.3562 7.12084 59.5162 7.27916 59.6268C7.44541 59.7374 7.65915 59.7926 7.91842 59.7926H12.9968C13.1631 59.7926 13.2778 59.7492 13.355 59.6722C13.4322 59.5952 13.4659 59.453 13.4659 59.2496V56.5285C13.4659 56.4574 13.4995 56.4239 13.5648 56.4239H14.1922C14.2575 56.4239 14.2911 56.4574 14.2911 56.5285H14.2931Z" fill="#EB7D2A"/>
<path d="M16.4068 62.6046C16.3415 62.6046 16.3079 62.571 16.3079 62.5038V61.9134C16.3079 61.8443 16.3415 61.8127 16.4068 61.8127H17.5864C17.717 61.8127 17.8377 61.7969 17.9486 61.7673C18.0594 61.7377 18.1564 61.6863 18.2375 61.6152C18.3187 61.5442 18.382 61.4454 18.4295 61.321C18.475 61.1966 18.4988 61.0386 18.4988 60.8471V60.5825H17.4479C17.1589 60.5825 16.8996 60.547 16.6681 60.4759C16.4365 60.4048 16.2386 60.2903 16.0743 60.1303C15.9101 59.9704 15.7854 59.7591 15.7003 59.4945C15.6152 59.2299 15.5717 58.904 15.5717 58.519C15.5717 58.1339 15.6192 57.7963 15.7201 57.508C15.819 57.2197 15.9536 56.9827 16.1278 56.7971C16.3 56.6115 16.5018 56.4713 16.7314 56.3804C16.961 56.2876 17.2064 56.2442 17.4676 56.2442C18.0515 56.2442 18.5047 56.4179 18.8312 56.7675C19.1598 57.117 19.3221 57.6797 19.3221 58.4597V60.8293C19.3221 61.1472 19.2805 61.4198 19.1994 61.6429C19.1182 61.868 19.0034 62.0497 18.857 62.1918C18.7085 62.334 18.5324 62.4387 18.3206 62.5078C18.1109 62.5769 17.8793 62.6085 17.622 62.6085H16.4029L16.4068 62.6046ZM17.4676 57.034C17.1352 57.034 16.8719 57.1703 16.6819 57.4408C16.4919 57.7113 16.3969 58.0707 16.3969 58.519C16.3969 59.0008 16.49 59.3325 16.678 59.5162C16.866 59.6998 17.1411 59.7907 17.5072 59.7907H18.4988V58.4578C18.4988 58.0115 18.4176 57.662 18.2593 57.4092C18.099 57.1584 17.8358 57.0321 17.4676 57.0321V57.034Z" fill="#EB7D2A"/>
<path d="M28.8812 59.6722C28.9564 59.5952 28.994 59.453 28.994 59.2496V56.5246C28.994 56.4574 29.0276 56.4239 29.0929 56.4239H29.7203C29.7856 56.4239 29.8193 56.4574 29.8193 56.5246V59.299C29.8193 59.7393 29.7302 60.0632 29.5541 60.2705C29.3779 60.4779 29.0771 60.5805 28.6516 60.5805H23.9294C23.5158 60.5805 23.2229 60.4759 23.0468 60.2705C22.8686 60.0632 22.7816 59.7413 22.7816 59.299V57.1743C22.7816 57.1071 22.8152 57.0735 22.8805 57.0735H23.5079C23.5732 57.0735 23.6068 57.1071 23.6068 57.1743V59.2476C23.6068 59.451 23.6444 59.5912 23.7197 59.6702C23.7949 59.7472 23.9156 59.7867 24.0779 59.7867H28.515C28.6852 59.7867 28.8079 59.7472 28.8831 59.6702L28.8812 59.6722ZM25.3801 56.0171C25.3148 56.0171 25.2812 55.9835 25.2812 55.9164V55.1739C25.2812 55.1068 25.3148 55.0732 25.3801 55.0732H26.0491C26.1144 55.0732 26.148 55.1068 26.148 55.1739V55.9164C26.148 55.9835 26.1144 56.0171 26.0491 56.0171H25.3801ZM26.5775 56.0171C26.5122 56.0171 26.4785 55.9835 26.4785 55.9164V55.1739C26.4785 55.1068 26.5122 55.0732 26.5775 55.0732H27.2464C27.3117 55.0732 27.3454 55.1068 27.3454 55.1739V55.9164C27.3454 55.9835 27.3117 56.0171 27.2464 56.0171H26.5775Z" fill="#EB7D2A"/>
<path d="M33.0294 52.1527H32.8136C32.7483 52.1527 32.7147 52.1863 32.7147 52.2574C32.7147 52.3837 32.6929 52.4726 32.6553 52.5259C32.6118 52.5753 32.5346 52.6029 32.4237 52.6029C32.2813 52.6029 32.1249 52.5753 31.9725 52.52C31.8122 52.4647 31.6539 52.4035 31.4936 52.3383C31.3333 52.2672 31.1749 52.206 31.0186 52.1527C30.8583 52.0974 30.7098 52.0698 30.5673 52.0698C30.3971 52.0698 30.2428 52.129 30.1102 52.2455C29.9776 52.362 29.8845 52.5259 29.841 52.7451C29.8311 52.8103 29.8509 52.8557 29.9063 52.8774L30.1161 52.9366C30.1814 52.9524 30.221 52.9307 30.2428 52.8656C30.2764 52.749 30.32 52.674 30.3793 52.6345C30.4387 52.595 30.5001 52.5792 30.5654 52.5792C30.6821 52.5792 30.8187 52.6069 30.9671 52.6622C31.1156 52.7175 31.2699 52.7727 31.4362 52.8379C31.5965 52.9031 31.7607 52.9643 31.9309 53.0136C32.1071 53.0689 32.2773 53.0966 32.4495 53.0966C32.6593 53.0966 32.8235 53.0255 32.9443 52.8813C33.065 52.7451 33.1263 52.5299 33.1263 52.2554C33.1263 52.1843 33.0927 52.1507 33.0274 52.1507H33.0294V52.1527Z" fill="#EB7D2A"/>
<path d="M42.2342 54.471H41.5633C41.498 54.471 41.4703 54.5045 41.4703 54.5756V55.3181C41.4703 55.3832 41.498 55.4168 41.5633 55.4168H42.2342C42.2936 55.4168 42.3272 55.3832 42.3272 55.3181V54.5756C42.3272 54.5045 42.2936 54.471 42.2342 54.471ZM42.8398 53.2842H42.1729C42.1075 53.2842 42.0739 53.3177 42.0739 53.3829V54.1254C42.0739 54.1905 42.1075 54.23 42.1729 54.23H42.8398C42.9051 54.23 42.9388 54.1905 42.9388 54.1254V53.3829C42.9388 53.3177 42.9051 53.2842 42.8398 53.2842ZM43.4296 54.471H42.7626C42.6973 54.471 42.6637 54.5045 42.6637 54.5756V55.3181C42.6637 55.3832 42.6973 55.4168 42.7626 55.4168H43.4296C43.4949 55.4168 43.5286 55.3832 43.5286 55.3181V54.5756C43.5286 54.5045 43.4949 54.471 43.4296 54.471Z" fill="#EB7D2A"/>
<path d="M53.5052 56.7635C53.1688 56.418 52.7116 56.2402 52.1277 56.2402C51.5439 56.2402 51.0867 56.416 50.7562 56.7635C50.4198 57.115 50.2555 57.6758 50.2555 58.4558V58.6651C50.2555 58.7303 50.2614 58.7974 50.2654 58.8626C50.2654 59.0383 50.2436 59.1864 50.21 59.3069C50.1704 59.4234 50.1269 59.5162 50.0675 59.5873C50.0081 59.6584 49.9408 59.7137 49.8696 59.7413C49.7983 59.7749 49.7271 59.7907 49.6539 59.7907H49.1254C48.8563 59.7907 48.6406 59.7314 48.4802 59.6149C48.3199 59.4984 48.2388 59.3286 48.2388 59.0976V56.5246C48.2388 56.4535 48.2051 56.4199 48.1458 56.4199H47.5184C47.4531 56.4199 47.4194 56.4535 47.4194 56.5246V59.2457C47.4194 59.4491 47.3799 59.5912 47.3027 59.6683C47.2314 59.7453 47.1107 59.7887 46.9445 59.7887H46.2181C45.9529 59.7887 45.7392 59.7295 45.5789 59.613C45.4126 59.4965 45.3374 59.3266 45.3374 59.0956V56.5226C45.3374 56.4515 45.3038 56.418 45.2385 56.418H44.6111C44.5458 56.418 44.5121 56.4515 44.5121 56.5226V59.2437C44.5121 59.4471 44.4725 59.5893 44.4013 59.6663C44.3241 59.7433 44.2034 59.7867 44.0431 59.7867H43.8175C43.5523 59.7867 43.3385 59.7314 43.1782 59.6209C43.012 59.5103 42.9308 59.3523 42.9308 59.1311V57.3934C42.9308 57.3224 42.8972 57.2888 42.8319 57.2888H42.2045C42.1392 57.2888 42.1055 57.3224 42.1055 57.3934V59.2397C42.1055 59.4431 42.0719 59.5853 41.9947 59.6623C41.9175 59.7393 41.8027 59.7828 41.6365 59.7828H41.3891C41.1298 59.7828 40.92 59.7235 40.7617 59.607C40.6073 59.4905 40.5262 59.3207 40.5262 59.0897V57.3915C40.5262 57.3204 40.4926 57.2868 40.4332 57.2868H39.7999C39.7405 57.2868 39.7069 57.3204 39.7069 57.3915V59.2378C39.7069 59.4412 39.6673 59.5833 39.5901 59.6604C39.5129 59.7374 39.3981 59.7808 39.2319 59.7808H32.3683C32.2021 59.7808 32.0873 59.7374 32.0101 59.6604C31.9329 59.5833 31.8933 59.4412 31.8933 59.2378V53.7581C31.8933 53.6929 31.8656 53.6594 31.8003 53.6594H31.1729C31.1076 53.6594 31.074 53.6929 31.074 53.7581V59.2931C31.074 59.7334 31.163 60.0573 31.3392 60.2607C31.5153 60.47 31.8082 60.5746 32.2199 60.5746H39.3803C39.8988 60.5746 40.2333 60.3989 40.3995 60.0474C40.4886 60.2231 40.6093 60.3554 40.7617 60.4423C40.922 60.5312 41.1041 60.5746 41.3119 60.5746H41.7869C42.2995 60.5746 42.6399 60.3989 42.8061 60.0474C42.8893 60.2231 43.01 60.3554 43.1683 60.4423C43.3227 60.5312 43.5107 60.5746 43.7185 60.5746H44.1876C44.7061 60.5746 45.0465 60.3989 45.2108 60.0474C45.2939 60.2231 45.4146 60.3554 45.5729 60.4423C45.7273 60.5312 45.9094 60.5746 46.1172 60.5746H47.0929C47.6114 60.5746 47.9518 60.3989 48.1121 60.0474C48.2012 60.2231 48.3219 60.3554 48.4743 60.4423C48.6346 60.5312 48.8167 60.5746 49.0245 60.5746H49.5866C49.7686 60.5746 49.9666 60.547 50.1823 60.4858C50.402 60.4305 50.5781 60.2942 50.7166 60.0731C50.8769 60.2705 51.0788 60.4147 51.3123 60.5075C51.5479 60.5963 51.8249 60.6437 52.1277 60.6437C52.4305 60.6437 52.6779 60.6003 52.9095 60.5174C53.141 60.4285 53.339 60.2982 53.4993 60.1224C53.6596 59.9467 53.7862 59.7216 53.8733 59.4412C53.9624 59.1667 54.0059 58.831 54.0059 58.4459C54.0059 57.6659 53.8397 57.1051 53.5052 56.7537H53.5092L53.5052 56.7635ZM52.9332 59.5241C52.763 59.7492 52.4978 59.8598 52.1297 59.8598C51.7616 59.8598 51.4964 59.7492 51.3321 59.5241C51.1659 59.3049 51.0847 58.9475 51.0847 58.4578C51.0847 58.0135 51.1679 57.662 51.3321 57.4132C51.4984 57.1604 51.7675 57.0341 52.1297 57.0341C52.4919 57.0341 52.763 57.1604 52.9332 57.4132C53.0995 57.66 53.1806 58.0135 53.1806 58.4578C53.1806 58.9475 53.0975 59.3029 52.9332 59.5241Z" fill="#EB7D2A"/>
<path d="M48.1597 54.4709H47.4927C47.4274 54.4709 47.3937 54.5045 47.3937 54.5756V55.3181C47.3937 55.3832 47.4274 55.4168 47.4927 55.4168H48.1597C48.225 55.4168 48.2586 55.3832 48.2586 55.3181V54.5756C48.2586 54.5045 48.225 54.4709 48.1597 54.4709Z" fill="#EB7D2A"/>
<path d="M5.34359 69.502C5.40692 69.4369 5.43859 69.3164 5.43859 69.1426V66.8264C5.43859 66.7691 5.4663 66.7395 5.52171 66.7395H6.05607C6.11149 66.7395 6.13919 66.7691 6.13919 66.8264V69.1841C6.13919 69.5593 6.06399 69.8338 5.91357 70.0095C5.76316 70.1853 5.50786 70.2722 5.14568 70.2722H1.13403C0.783724 70.2722 0.532377 70.1853 0.383944 70.0095C0.233531 69.8338 0.158325 69.5593 0.158325 69.1841V67.3793C0.158325 67.322 0.186033 67.2924 0.241448 67.2924H0.775807C0.831222 67.2924 0.85893 67.32 0.85893 67.3793V69.1426C0.85893 69.3144 0.890596 69.4349 0.953927 69.502C1.01726 69.5692 1.12017 69.6008 1.25871 69.6008H5.03089C5.17537 69.6008 5.27828 69.5672 5.34359 69.502ZM2.36899 66.3959C2.31358 66.3959 2.28587 66.3663 2.28587 66.309V65.6771C2.28587 65.6199 2.31358 65.5902 2.36899 65.5902H2.93699C2.99241 65.5902 3.02012 65.6199 3.02012 65.6771V66.309C3.02012 66.3663 2.99241 66.3959 2.93699 66.3959H2.36899ZM3.38625 66.3959C3.33084 66.3959 3.30313 66.3663 3.30313 66.309V65.6771C3.30313 65.6199 3.33084 65.5902 3.38625 65.5902H3.95426C4.00967 65.5902 4.03738 65.6199 4.03738 65.6771V66.309C4.03738 66.3663 4.00967 66.3959 3.95426 66.3959H3.38625Z" fill="#1061A8"/>
<path d="M12.3556 67.0317C12.0746 66.7336 11.6847 66.5874 11.1879 66.5874C10.6912 66.5874 10.3072 66.7355 10.0202 67.0317C9.73921 67.3299 9.59671 67.8078 9.59671 68.4713V68.647C9.59671 68.7023 9.59671 68.7576 9.60265 68.8168C9.60265 68.9649 9.59276 69.0913 9.55911 69.1901C9.5314 69.2888 9.48786 69.3717 9.43838 69.431C9.38891 69.4902 9.33349 69.5356 9.27214 69.5633C9.21277 69.585 9.15141 69.6028 9.09006 69.6028H8.30238C8.16582 69.6028 8.06092 69.5692 7.99957 69.504C7.93426 69.4329 7.90062 69.3184 7.90062 69.1427V64.4864C7.90062 64.4272 7.87291 64.3976 7.81749 64.3976H7.28313C7.22772 64.3976 7.20001 64.4252 7.20001 64.4864V69.1861C7.20001 69.5593 7.2772 69.8358 7.42563 70.0115C7.57406 70.1872 7.82739 70.2761 8.17571 70.2761H9.02871C9.18308 70.2761 9.35328 70.2544 9.53536 70.205C9.7214 70.1557 9.87181 70.0392 9.9866 69.8535C10.1232 70.0234 10.2953 70.1458 10.4992 70.2208C10.6971 70.2978 10.9287 70.3373 11.1879 70.3373C11.4472 70.3373 11.657 70.3038 11.8549 70.2327C12.0528 70.1557 12.2171 70.0471 12.3556 69.897C12.4882 69.7489 12.597 69.5554 12.6703 69.3204C12.7475 69.0854 12.787 68.7971 12.787 68.4752C12.787 67.8098 12.6445 67.3319 12.3576 67.0357L12.3556 67.0317ZM11.8707 69.3776C11.7282 69.5633 11.5026 69.664 11.1879 69.664C10.8732 69.664 10.6536 69.5652 10.5111 69.3776C10.3686 69.1861 10.2953 68.884 10.2953 68.4713C10.2953 68.0921 10.3666 67.7959 10.5111 67.5807C10.6555 67.3655 10.8792 67.2628 11.1879 67.2628C11.4967 67.2628 11.7282 67.3674 11.8707 67.5807C12.0073 67.7959 12.0805 68.0921 12.0805 68.4713C12.0805 68.884 12.0092 69.1861 11.8707 69.3776Z" fill="#1061A8"/>
<path d="M30.8642 64.3995H30.3299C30.2744 64.3995 30.2467 64.4272 30.2467 64.4884V69.1446C30.2467 69.3204 30.2131 69.4369 30.1537 69.506C30.0884 69.5712 29.9875 69.6047 29.845 69.6047H29.0909C28.9643 69.6047 28.8495 69.5494 28.7446 69.4448C28.6338 69.3342 28.5783 69.1367 28.5744 68.8405C28.5803 68.7853 28.5803 68.724 28.5843 68.6589C28.5843 68.5996 28.5902 68.5325 28.5902 68.4733C28.5902 67.8078 28.4477 67.3299 28.1608 67.0337C27.8797 66.7356 27.4898 66.5894 26.9931 66.5894C26.4963 66.5894 26.1124 66.7375 25.8254 67.0337C25.5444 67.3319 25.4019 67.8098 25.4019 68.4733V68.649C25.4019 68.7043 25.4078 68.7596 25.4118 68.8188C25.4118 68.9669 25.3959 69.0933 25.3623 69.192C25.3346 69.2908 25.291 69.3737 25.2416 69.4329C25.1921 69.4922 25.1367 69.5376 25.0753 69.5652C25.0159 69.587 24.9546 69.6047 24.8932 69.6047H23.12C23.0764 69.6047 23.0368 69.5988 22.9992 69.583C23.1101 69.5179 23.2189 69.4231 23.3357 69.3145C23.4525 69.2039 23.5554 69.0736 23.6444 68.9353C23.7374 68.7932 23.8107 68.6372 23.87 68.4673C23.9294 68.2975 23.9591 68.1218 23.9591 67.9342C23.9591 67.5215 23.8166 67.1917 23.5356 66.9508C23.2486 66.7099 22.8092 66.5894 22.2135 66.5894C22.0275 66.5894 21.8454 66.6052 21.6732 66.6329C21.503 66.6605 21.3427 66.698 21.1982 66.7435C21.0617 66.7928 20.933 66.8422 20.8242 66.8916C20.7153 66.9409 20.6322 66.9903 20.559 67.0278C20.5036 67.0614 20.4759 67.1206 20.4759 67.2035V67.7209C20.4759 67.7486 20.4858 67.7762 20.4976 67.8038C20.5135 67.8315 20.5412 67.8591 20.5907 67.8927C20.7173 67.9855 20.838 68.0783 20.9528 68.1731C21.0736 68.262 21.1844 68.3706 21.2833 68.497C21.3823 68.6174 21.4694 68.7616 21.5485 68.9195C21.6257 69.0854 21.6811 69.2769 21.7247 69.508C21.5644 69.5573 21.4258 69.585 21.3051 69.5909C21.1844 69.6008 21.0894 69.6067 21.0181 69.6067H19.8505C19.6189 69.6067 19.4368 69.5573 19.3003 69.4586C19.1677 69.3599 19.0964 69.2118 19.0964 69.0183V64.4884C19.0964 64.4292 19.0687 64.3995 19.0133 64.3995H18.479C18.4235 64.3995 18.3958 64.4272 18.3958 64.4884V69.1446C18.3958 69.3204 18.3622 69.4369 18.3028 69.506C18.2375 69.5712 18.1366 69.6047 17.9941 69.6047H16.8877V68.4713C16.8877 67.8058 16.7512 67.328 16.4682 67.0318C16.1931 66.7336 15.8012 66.5875 15.3124 66.5875C15.0927 66.5875 14.8888 66.6269 14.6909 66.704C14.499 66.781 14.3288 66.9014 14.1783 67.0614C14.0359 67.2154 13.9131 67.4188 13.832 67.6656C13.7429 67.9065 13.6994 68.1929 13.6994 68.5226C13.6994 68.8524 13.739 69.1269 13.8102 69.352C13.8815 69.5771 13.9864 69.7588 14.1289 69.8911C14.2654 70.0273 14.4317 70.126 14.6296 70.1892C14.8275 70.2485 15.0492 70.2781 15.2965 70.2781H16.1891V70.5032C16.1891 70.6632 16.1674 70.8014 16.1297 70.9041C16.0902 71.0146 16.0367 71.0956 15.9694 71.1568C15.8982 71.2161 15.8151 71.2615 15.7221 71.2832C15.629 71.3108 15.5241 71.3227 15.4133 71.3227H14.4099C14.3545 71.3227 14.3268 71.3563 14.3268 71.4116V71.9111C14.3268 71.9704 14.3545 72 14.4099 72H15.445C15.6607 72 15.8586 71.9724 16.0347 71.9111C16.2168 71.8558 16.3653 71.769 16.4919 71.6465C16.6186 71.5261 16.7116 71.3661 16.7848 71.1785C16.8561 70.987 16.8897 70.756 16.8897 70.4854V70.2761H18.1227C18.5641 70.2761 18.849 70.128 18.9935 69.8259C19.0648 69.9799 19.1637 70.0905 19.3023 70.1675C19.4349 70.2386 19.5892 70.2781 19.7654 70.2781H21.0775C21.2438 70.2781 21.4239 70.2623 21.6277 70.2228C21.8375 70.1833 22.0295 70.1122 22.2116 70.0076C22.3778 70.1122 22.548 70.1833 22.7301 70.2228C22.9062 70.2623 23.0982 70.2781 23.2981 70.2781H24.8358C24.9902 70.2781 25.1604 70.2564 25.3425 70.207C25.5285 70.1576 25.679 70.0411 25.7937 69.8555C25.9303 70.0253 26.1025 70.1478 26.3063 70.2228C26.5042 70.2998 26.7358 70.3393 26.9951 70.3393C27.2543 70.3393 27.4799 70.2998 27.6838 70.2287C27.8817 70.1517 28.0519 70.0313 28.1904 69.8674C28.2459 69.9602 28.3112 70.0332 28.3884 70.0866C28.4655 70.1418 28.5487 70.1794 28.6357 70.2129C28.7248 70.2406 28.8119 70.2564 28.9009 70.2682C28.99 70.2741 29.0711 70.2781 29.1483 70.2781H29.9756C30.3279 70.2781 30.5772 70.1892 30.7296 70.0135C30.8781 69.8377 30.9493 69.5633 30.9493 69.1881V64.4884C30.9493 64.4292 30.9216 64.3995 30.8662 64.3995H30.8622H30.8642ZM16.1891 69.6047H15.346C15.0313 69.6047 14.7958 69.5218 14.6415 69.3697C14.4812 69.2157 14.4 68.9353 14.4 68.5246C14.4 68.1455 14.4831 67.8374 14.6474 67.6064C14.8136 67.3813 15.0333 67.2648 15.3144 67.2648C15.6231 67.2648 15.8487 67.3694 15.9853 67.5827C16.1179 67.7979 16.1891 68.0941 16.1891 68.4733V69.6067V69.6047ZM22.6727 69.038C22.5678 69.1269 22.4748 69.198 22.3857 69.2572C22.2927 68.8386 22.1383 68.4812 21.9226 68.185C21.7069 67.8828 21.4595 67.6518 21.1725 67.482C21.2378 67.4425 21.3586 67.3931 21.5525 67.3457C21.7385 67.2904 21.9602 67.2628 22.2076 67.2628C22.3501 67.2628 22.4827 67.2727 22.6034 67.2964C22.7301 67.3181 22.835 67.3556 22.928 67.4129C23.017 67.4682 23.0883 67.5392 23.1378 67.6321C23.1932 67.7249 23.2209 67.8414 23.2209 67.9895C23.2209 68.1257 23.1932 68.258 23.1378 68.3903C23.0883 68.5167 23.021 68.6372 22.9399 68.7418C22.8567 68.8524 22.7697 68.9452 22.6707 69.04L22.6727 69.038ZM27.6739 69.3796C27.5314 69.5652 27.3058 69.6659 26.9911 69.6659C26.6764 69.6659 26.4567 69.5672 26.3142 69.3796C26.1718 69.1881 26.0985 68.886 26.0985 68.4733C26.0985 68.0941 26.1698 67.7979 26.3142 67.5827C26.4587 67.3674 26.6824 67.2648 26.9911 67.2648C27.2998 67.2648 27.5314 67.3694 27.6739 67.5827C27.8164 67.7979 27.8837 68.0941 27.8837 68.4733C27.8837 68.886 27.8184 69.1881 27.6739 69.3796Z" fill="#1061A8"/>
<path d="M32.8176 70.1892C32.8176 70.2465 32.7899 70.2761 32.7345 70.2761H32.2001C32.1447 70.2761 32.117 70.2485 32.117 70.1892V64.4864C32.117 64.4292 32.1447 64.3995 32.2001 64.3995H32.7345C32.7899 64.3995 32.8176 64.4292 32.8176 64.4864V70.1892Z" fill="#1061A8"/>
<path d="M38.1077 64.7392H37.5397C37.4843 64.7392 37.4566 64.7668 37.4566 64.8221V65.454C37.4566 65.5132 37.4843 65.5429 37.5397 65.5429H38.1077C38.1632 65.5429 38.1909 65.5152 38.1909 65.454V64.8221C38.1909 64.7668 38.1632 64.7392 38.1077 64.7392ZM37.0885 64.7392H36.5205C36.4651 64.7392 36.4374 64.7668 36.4374 64.8221V65.454C36.4374 65.5132 36.4651 65.5429 36.5205 65.5429H37.0885C37.1439 65.5429 37.1716 65.5152 37.1716 65.454V64.8221C37.1716 64.7668 37.1439 64.7392 37.0885 64.7392Z" fill="#1061A8"/>
<path d="M40.637 71.0758H40.069C40.0136 71.0758 39.9859 71.1094 39.9859 71.1647V71.7966C39.9859 71.8519 40.0136 71.8854 40.069 71.8854H40.637C40.6924 71.8854 40.7202 71.8519 40.7202 71.7966V71.1647C40.7202 71.1094 40.6924 71.0758 40.637 71.0758ZM41.6563 71.0758H41.0883C41.0329 71.0758 41.0051 71.1094 41.0051 71.1647V71.7966C41.0051 71.8519 41.0329 71.8854 41.0883 71.8854H41.6563C41.7117 71.8854 41.7394 71.8519 41.7394 71.7966V71.1647C41.7394 71.1094 41.7117 71.0758 41.6563 71.0758Z" fill="#1061A8"/>
<path d="M43.7819 65.0788H43.2139C43.1584 65.0788 43.1307 65.1124 43.1307 65.1677V65.7996C43.1307 65.8549 43.1584 65.8884 43.2139 65.8884H43.7819C43.8373 65.8884 43.865 65.8549 43.865 65.7996V65.1677C43.865 65.1124 43.8373 65.0788 43.7819 65.0788Z" fill="#1061A8"/>
<path d="M46.5526 65.0788H45.9846C45.9292 65.0788 45.9015 65.1124 45.9015 65.1677V65.7996C45.9015 65.8549 45.9292 65.8884 45.9846 65.8884H46.5526C46.608 65.8884 46.6357 65.8549 46.6357 65.7996V65.1677C46.6357 65.1124 46.608 65.0788 46.5526 65.0788ZM47.5719 65.0788H47.0039C46.9484 65.0788 46.9207 65.1124 46.9207 65.1677V65.7996C46.9207 65.8549 46.9484 65.8884 47.0039 65.8884H47.5719C47.6273 65.8884 47.655 65.8549 47.655 65.7996V65.1677C47.655 65.1124 47.6273 65.0788 47.5719 65.0788Z" fill="#1061A8"/>
<path d="M51.1243 65.0788H50.5563C50.5009 65.0788 50.4732 65.1124 50.4732 65.1677V65.7996C50.4732 65.8549 50.5009 65.8884 50.5563 65.8884H51.1243C51.1798 65.8884 51.2075 65.8549 51.2075 65.7996V65.1677C51.2075 65.1124 51.1798 65.0788 51.1243 65.0788ZM50.1051 65.0788H49.5371C49.4817 65.0788 49.454 65.1124 49.454 65.1677V65.7996C49.454 65.8549 49.4817 65.8884 49.5371 65.8884H50.1051C50.1645 65.8884 50.1942 65.8549 50.1942 65.7996V65.1677C50.1942 65.1124 50.1665 65.0788 50.1051 65.0788Z" fill="#1061A8"/>
<path d="M53.0956 64.3995H52.5612C52.5058 64.3995 52.4781 64.4272 52.4781 64.4884V69.1446C52.4781 69.3204 52.4444 69.4369 52.3791 69.506C52.3197 69.5712 52.2129 69.6047 52.0763 69.6047H51.4489C51.2233 69.6047 51.0412 69.5554 50.9047 69.4566C50.7681 69.3579 50.7008 69.2098 50.7008 69.0163V66.8284C50.7008 66.7731 50.6731 66.7395 50.6177 66.7395H50.0834C50.0279 66.7395 50.0002 66.7731 50.0002 66.8284V69.1427C50.0002 69.3184 49.9666 69.4349 49.9013 69.504C49.8419 69.5692 49.735 69.6028 49.5985 69.6028H47.8133C47.7579 69.6028 47.7144 69.6028 47.6866 69.6087C47.9222 69.4428 48.1062 69.2355 48.2309 68.9768C48.3635 68.724 48.4288 68.4535 48.4288 68.1573C48.4288 67.9263 48.3952 67.717 48.3299 67.5254C48.2645 67.328 48.1597 67.1641 48.0211 67.0258C47.8885 66.8896 47.7183 66.779 47.5085 66.702C47.3047 66.625 47.0632 66.5855 46.7763 66.5855C46.4893 66.5855 46.2478 66.625 46.044 66.702C45.8342 66.779 45.664 66.8876 45.5314 67.0258C45.3948 67.1621 45.2899 67.328 45.2227 67.5254C45.1573 67.717 45.1237 67.9263 45.1237 68.1573C45.1237 68.4555 45.189 68.724 45.3216 68.9768C45.4483 69.2236 45.6304 69.4329 45.856 69.6028H44.5992C44.3677 69.6028 44.1856 69.5534 44.049 69.4547C43.9164 69.3559 43.8452 69.2078 43.8452 69.0143V66.8264C43.8452 66.7711 43.8175 66.7375 43.7621 66.7375H43.2277C43.1723 66.7375 43.1446 66.7711 43.1446 66.8264V69.1407C43.1446 69.3164 43.1109 69.4329 43.0516 69.5021C42.9863 69.5672 42.8853 69.6008 42.7428 69.6008H42.06C41.8344 69.6008 41.6523 69.5514 41.5158 69.4527C41.3792 69.354 41.3119 69.2059 41.3119 69.0123V66.8244C41.3119 66.7691 41.2842 66.7356 41.2288 66.7356H40.6945C40.639 66.7356 40.6113 66.7691 40.6113 66.8244V69.1387C40.6113 69.3145 40.5777 69.431 40.5124 69.5001C40.4471 69.5652 40.3461 69.5988 40.2096 69.5988H39.6416C39.6257 69.5988 39.6079 69.5988 39.598 69.6047C39.5921 69.5988 39.5881 69.5988 39.5822 69.5988H39.22C39.0775 69.5988 38.9786 69.5652 38.9113 69.5001C38.8519 69.429 38.8183 69.3145 38.8183 69.1387V66.2083C38.8183 66.153 38.7906 66.1254 38.7351 66.1254H38.2008C38.1454 66.1254 38.1177 66.153 38.1177 66.2083V66.5815H37.2963C37.0925 66.5815 36.8946 66.6092 36.7006 66.6704C36.5086 66.7296 36.3384 66.8303 36.194 66.9686C36.0515 67.1048 35.9347 67.2825 35.8476 67.5017C35.7546 67.717 35.7111 67.9914 35.7111 68.3094C35.7111 68.5838 35.7506 68.8149 35.8318 69.0183C35.909 69.2157 36.0139 69.3796 36.1504 69.508C36.287 69.6403 36.4493 69.7331 36.6353 69.8002C36.8213 69.8595 37.0212 69.893 37.2409 69.893C37.423 69.893 37.5932 69.8654 37.7476 69.816C37.9019 69.7607 38.0345 69.6837 38.1493 69.581C38.1988 69.8338 38.2978 70.0095 38.4521 70.1142C38.6065 70.2248 38.8143 70.2741 39.0914 70.2741H40.3362C40.7716 70.2741 41.0626 70.126 41.2011 69.8239C41.2724 69.9779 41.3773 70.0885 41.5099 70.1655C41.6425 70.2366 41.8028 70.2761 41.9789 70.2761H42.8715C43.3128 70.2761 43.5978 70.128 43.7423 69.8259C43.8135 69.9799 43.9125 70.0905 44.051 70.1675C44.1836 70.2386 44.338 70.2781 44.5201 70.2781H45.6442C45.8045 70.2781 45.9906 70.2722 46.2003 70.2505C46.4101 70.2347 46.6021 70.1734 46.7901 70.0688C46.9504 70.1734 47.1206 70.2347 47.2968 70.2505C47.4729 70.2722 47.6649 70.2781 47.8648 70.2781H49.7271C50.1685 70.2781 50.4534 70.13 50.592 69.8279C50.6632 69.9819 50.7681 70.0925 50.9007 70.1695C51.0373 70.2406 51.1936 70.2801 51.3698 70.2801H52.2069C52.5533 70.2801 52.8086 70.1912 52.957 70.0155C53.1054 69.8397 53.1826 69.5652 53.1826 69.1901V64.4904C53.1826 64.4311 53.1549 64.4015 53.0995 64.4015L53.0956 64.3995ZM38.1177 68.1257C38.1177 68.4713 38.0523 68.7418 37.9197 68.9334C37.7871 69.1249 37.5675 69.2197 37.2488 69.2197C36.9836 69.2197 36.7738 69.1486 36.6313 68.9946C36.4888 68.8405 36.4156 68.6154 36.4156 68.3133C36.4156 67.9184 36.4987 67.6439 36.6571 67.4879C36.8233 67.3339 37.0371 67.2628 37.2963 67.2628H38.1177V68.1257ZM46.7763 69.4547C46.5229 69.35 46.3013 69.1901 46.1251 68.9807C45.949 68.7714 45.856 68.5127 45.856 68.1988C45.856 67.8848 45.945 67.6597 46.1152 67.4997C46.2914 67.3339 46.5111 67.2588 46.7763 67.2588C47.0415 67.2588 47.2611 67.3358 47.4373 67.4997C47.6075 67.6597 47.6965 67.8907 47.6965 68.1988C47.6965 68.5068 47.6035 68.7695 47.4274 68.9807C47.2512 69.192 47.0316 69.348 46.7763 69.4547Z" fill="#1061A8"/>
<path d="M39.7187 7.9796L28.2162 1.35857L25.8709 0L23.5197 1.35264L12.0349 7.96972L9.66595 9.33816V18.8027L12.0349 17.4678V10.6809L25.8709 2.70923L39.7187 10.6829V26.8198L30.2665 32.2679C29.5956 31.6617 28.703 31.2944 27.7273 31.2944C25.6334 31.2944 23.9254 32.9926 23.9254 35.0857C23.9254 35.3563 23.9531 35.6189 24.0086 35.8736C24.1807 36.6694 24.6043 37.3783 25.194 37.8996C25.8709 38.5157 26.7575 38.8791 27.7273 38.8791C29.8252 38.8791 31.5272 37.1749 31.5272 35.0857C31.5272 34.8172 31.4995 34.5546 31.4441 34.2998L39.7187 29.535L42.0818 28.1725V9.34408L39.7187 7.9796ZM29.6985 35.3069C29.5877 36.2903 28.7446 37.0643 27.7273 37.0643C27.4463 37.0643 27.1811 37.0051 26.9376 36.8945H26.9337C26.2331 36.5924 25.7442 35.8934 25.7442 35.0857C25.7442 35.0087 25.7482 34.9376 25.7601 34.8606C25.8709 33.8713 26.714 33.1032 27.7273 33.1032C28.0143 33.1032 28.2834 33.1624 28.5249 33.2671C29.2196 33.5751 29.7104 34.2742 29.7104 35.0857C29.7104 35.1568 29.7044 35.2338 29.6985 35.3069Z" fill="#EB7D2A"/>
<path d="M32.6514 18.9784C31.6539 18.9784 30.7514 19.3635 30.0666 19.9954L21.693 15.1693L19.3418 13.8108L17.0441 15.1358L5.49204 21.7904L3.21606 23.1035V41.9832L5.49204 43.2924L17.0223 49.9371L19.3735 51.2957L21.7089 49.9549L21.7148 49.9648L27.7531 46.4854L25.4177 45.1229L24.7468 45.508C24.6815 45.5415 24.6043 45.5731 24.5311 45.6186L19.3795 48.5865L5.49204 40.5891V24.5016L19.4012 16.4943L28.9306 21.9799C28.8752 22.2386 28.8475 22.5032 28.8475 22.7718C28.8475 24.8609 30.5555 26.5631 32.6474 26.5631C33.6231 26.5631 34.5137 26.1899 35.1866 25.5857C35.7586 25.0742 36.1781 24.387 36.3483 23.613C36.4136 23.3444 36.4473 23.064 36.4473 22.7718C36.4473 20.6766 34.7453 18.9804 32.6474 18.9804L32.6514 18.9784ZM33.4489 24.5845C33.2075 24.6892 32.9364 24.7504 32.6514 24.7504C31.6321 24.7504 30.789 23.9743 30.6782 22.9909C30.6722 22.9199 30.6683 22.8428 30.6683 22.7718C30.6683 21.9858 31.1255 21.3046 31.7924 20.9847C32.0517 20.8642 32.3426 20.7932 32.6514 20.7932C33.6983 20.7932 34.5513 21.5949 34.6245 22.6177H34.6305C34.6364 22.6671 34.6364 22.7224 34.6364 22.7718C34.6364 23.5794 34.1456 24.2765 33.4509 24.5845H33.4489Z" fill="#1061A8"/>
<path d="M48.51 20.3963L43.4138 17.4599C43.4138 17.4599 43.4138 17.4659 43.4078 17.4659L42.543 16.9663L42.537 19.6597L43.491 20.2087L44.1916 20.6154L47.4136 22.4677L48.51 23.0996V39.2029L34.6226 47.2003L21.8316 39.8348L20.7075 39.1851V28.2416C22.2274 27.7479 23.3238 26.3222 23.3238 24.6418C23.3238 22.5526 21.6218 20.8504 19.524 20.8504C17.4261 20.8504 15.7241 22.5546 15.7241 24.6418C15.7241 26.3222 16.8264 27.7479 18.3404 28.2416V40.5299L20.7094 41.8924L32.2714 48.547L34.6226 49.9056L36.9678 48.5529H36.9738L48.508 41.9023L50.784 40.5931V21.6976L48.508 20.3884L48.51 20.3963ZM19.524 26.6243C18.4335 26.6243 17.5409 25.7397 17.5409 24.6457C17.5409 23.5518 18.4335 22.6671 19.524 22.6671C20.6144 22.6671 21.507 23.5518 21.507 24.6457C21.507 25.7397 20.6204 26.6243 19.524 26.6243Z" fill="#EB7D2A"/>
<path d="M47.4136 22.4697V22.4736L44.1916 20.6154L47.4136 22.4697Z" fill="#EB7D2A"/>
</g>
<defs>
<clipPath id="clip0_1_4">
<rect width="54" height="72" fill="white"/>
</clipPath>
</defs>
</svg>
